<svg width="28" height="15" viewBox="0 0 28 15" fill="none" xmlns="http://www.w3.org/2000/svg">
<path fill-rule="evenodd" clip-rule="evenodd" d="M6.58365 13.8412L0.9268 8.18436C0.579669 7.83722 0.579669 7.27441 0.9268 6.92728L6.58365 1.27042C6.93079 0.923292 7.4936 0.923292 7.84073 1.27042C8.18787 1.61756 8.18787 2.18037 7.84073 2.5275L3.70131 6.66693L21.9998 6.66693C22.4907 6.66693 22.8887 7.0649 22.8887 7.55582C22.8887 8.04674 22.4907 8.44471 21.9998 8.44471L3.70131 8.44471L7.84073 12.5841C8.18787 12.9313 8.18787 13.4941 7.84073 13.8412C7.4936 14.1883 6.93079 14.1883 6.58365 13.8412Z" fill="#2F73F6" stroke="#2F73F6" stroke-width="0.6" stroke-linejoin="round"/>
<circle cx="26.4451" cy="7.55545" r="0.888889" transform="rotate(-180 26.4451 7.55545)" fill="#2F73F6" stroke="#2F73F6" stroke-width="0.6"/>
</svg>
