<svg width="28" height="15" viewBox="0 0 28 15" fill="none" xmlns="http://www.w3.org/2000/svg">
<path fill-rule="evenodd" clip-rule="evenodd" d="M21.4163 1.15879L27.0732 6.81564C27.4203 7.16277 27.4203 7.72559 27.0732 8.07272L21.4163 13.7296C21.0692 14.0767 20.5064 14.0767 20.1593 13.7296C19.8121 13.3824 19.8121 12.8196 20.1593 12.4725L24.2987 8.33307L6.00022 8.33307C5.5093 8.33307 5.11133 7.9351 5.11133 7.44418C5.11133 6.95326 5.5093 6.55529 6.00022 6.55529L24.2987 6.55529L20.1593 2.41587C19.8121 2.06873 19.8121 1.50592 20.1593 1.15879C20.5064 0.811654 21.0692 0.811654 21.4163 1.15879Z" fill="#2F73F6" stroke="#2F73F6" stroke-width="0.6" stroke-linejoin="round"/>
<circle cx="1.5549" cy="7.44455" r="0.888889" fill="#2F73F6" stroke="#2F73F6" stroke-width="0.6"/>
</svg>
