<svg width="42" height="42" viewBox="0 0 42 42" fill="none" xmlns="http://www.w3.org/2000/svg">
<circle cx="21" cy="21" r="21" fill="white"/>
<path fill-rule="evenodd" clip-rule="evenodd" d="M27.4856 15.8889L32.4354 20.8387C32.7391 21.1424 32.7391 21.6349 32.4354 21.9386L27.4856 26.8884C27.1819 27.1921 26.6894 27.1921 26.3857 26.8884C26.082 26.5846 26.082 26.0922 26.3857 25.7884L30.0077 22.1664L13.9965 22.1664C13.567 22.1664 13.2188 21.8182 13.2188 21.3887C13.2188 20.9591 13.567 20.6109 13.9965 20.6109L30.0077 20.6109L26.3857 16.9889C26.082 16.6851 26.082 16.1927 26.3857 15.8889C26.6894 15.5852 27.1819 15.5852 27.4856 15.8889Z" fill="#4659FF"/>
<path fill-rule="evenodd" clip-rule="evenodd" d="M26.2197 15.7239C26.6145 15.329 27.2547 15.329 27.6496 15.7239L32.5993 20.6736C32.9942 21.0685 32.9942 21.7087 32.5993 22.1036L27.6496 27.0533C27.2547 27.4482 26.6145 27.4482 26.2197 27.0533C25.8248 26.6584 25.8248 26.0182 26.2197 25.6234L29.4433 22.3997L13.9955 22.3997C13.4371 22.3997 12.9844 21.947 12.9844 21.3886C12.9844 20.8302 13.4371 20.3775 13.9955 20.3775L29.4433 20.3775L26.2197 17.1538C25.8248 16.7589 25.8248 16.1187 26.2197 15.7239ZM27.3196 16.0539C27.107 15.8412 26.7623 15.8412 26.5496 16.0539C26.337 16.2665 26.337 16.6112 26.5496 16.8238L30.1716 20.4458C30.2384 20.5126 30.2583 20.6129 30.2222 20.7001C30.1861 20.7873 30.101 20.8441 30.0067 20.8441L13.9955 20.8441C13.6948 20.8441 13.451 21.0879 13.451 21.3886C13.451 21.6893 13.6948 21.933 13.9955 21.933L30.0067 21.933C30.101 21.933 30.1861 21.9899 30.2222 22.0771C30.2583 22.1643 30.2384 22.2646 30.1716 22.3314L26.5496 25.9534C26.337 26.166 26.337 26.5107 26.5496 26.7233C26.7623 26.9359 27.107 26.9359 27.3196 26.7233L32.2694 21.7736C32.482 21.561 32.482 21.2162 32.2694 21.0036L27.3196 16.0539Z" fill="#4659FF"/>
<path d="M10.8876 21.3891C10.8876 21.8187 10.5394 22.1669 10.1098 22.1669C9.68025 22.1669 9.33203 21.8187 9.33203 21.3891C9.33203 20.9596 9.68025 20.6113 10.1098 20.6113C10.5394 20.6113 10.8876 20.9596 10.8876 21.3891Z" fill="#4659FF"/>
<path fill-rule="evenodd" clip-rule="evenodd" d="M10.1088 20.8446C9.80808 20.8446 9.56432 21.0884 9.56432 21.389C9.56432 21.6897 9.80808 21.9335 10.1088 21.9335C10.4095 21.9335 10.6532 21.6897 10.6532 21.389C10.6532 21.0884 10.4095 20.8446 10.1088 20.8446ZM9.09766 21.389C9.09766 20.8306 9.55035 20.3779 10.1088 20.3779C10.6672 20.3779 11.1199 20.8306 11.1199 21.389C11.1199 21.9475 10.6672 22.4002 10.1088 22.4002C9.55035 22.4002 9.09766 21.9475 9.09766 21.389Z" fill="#4659FF"/>
</svg>
