<svg width="26" height="29" viewBox="0 0 26 29" fill="none" xmlns="http://www.w3.org/2000/svg">
<path d="M12.9906 11.9443C11.8327 11.9443 10.8906 12.8864 10.8906 14.0443C10.8906 15.2023 11.8327 16.1443 12.9906 16.1443C14.1485 16.1443 15.0906 15.2023 15.0906 14.0443C15.0906 12.8864 14.1486 11.9443 12.9906 11.9443Z" fill="#F9F9F9"/>
<path d="M17.4621 9.57286C16.7343 8.84509 15.7705 8.44434 14.748 8.44434H11.2333C10.2108 8.44434 9.24684 8.84509 8.51915 9.57286C7.79138 10.3005 7.39062 11.2645 7.39062 12.287V15.8016C7.39062 16.8242 7.79138 17.7881 8.51915 18.5158C9.24684 19.2436 10.2108 19.6443 11.2333 19.6443H14.748C15.7705 19.6443 16.7344 19.2436 17.4621 18.5158C18.1898 17.7881 18.5906 16.8242 18.5906 15.8016V12.287C18.5906 11.2645 18.1898 10.3005 17.4621 9.57286ZM12.9906 17.0084C11.3562 17.0084 10.0266 15.6787 10.0266 14.0443C10.0266 12.4099 11.3562 11.0803 12.9906 11.0803C14.625 11.0803 15.9547 12.4099 15.9547 14.0443C15.9547 15.6787 14.625 17.0084 12.9906 17.0084ZM16.2743 11.2248C16.2133 11.2858 16.1286 11.3208 16.0423 11.3208C15.9559 11.3208 15.8714 11.2858 15.8104 11.2248C15.7491 11.1637 15.7141 11.0791 15.7141 10.9927C15.7141 10.9063 15.7491 10.8216 15.8104 10.7606C15.8714 10.6995 15.9558 10.6646 16.0423 10.6646C16.1286 10.6646 16.2133 10.6995 16.2743 10.7606C16.3354 10.8216 16.3704 10.9063 16.3704 10.9927C16.3704 11.079 16.3354 11.1637 16.2743 11.2248Z" fill="#F9F9F9"/>
<path fill-rule="evenodd" clip-rule="evenodd" d="M14.5463 1.66125C13.5837 1.10551 12.3977 1.10551 11.4352 1.66125L3.04414 6.50581C2.08156 7.06156 1.48859 8.08862 1.48859 9.20012V18.8892C1.48859 20.0007 2.08156 21.0278 3.04414 21.5835L11.4352 26.4281C12.3977 26.9838 13.5837 26.9838 14.5463 26.4281L22.9373 21.5835C23.8999 21.0278 24.4929 20.0007 24.4929 18.8892V10.0002C24.4929 9.65658 24.7714 9.37801 25.1151 9.37801C25.4587 9.37801 25.7373 9.65658 25.7373 10.0002V18.8892C25.7373 20.4453 24.9071 21.8832 23.5595 22.6613L15.1685 27.5058C13.8209 28.2839 12.1606 28.2839 10.8129 27.5058L2.42192 22.6613C1.07431 21.8832 0.244141 20.4453 0.244141 18.8892V9.20012C0.244141 7.64403 1.0743 6.20614 2.42192 5.42809L10.8129 0.583534C12.1606 -0.194511 13.8209 -0.194512 15.1685 0.583534L23.2574 5.25366C23.555 5.42548 23.657 5.80602 23.4851 6.10363C23.3133 6.40123 22.9328 6.5032 22.6352 6.33138L14.5463 1.66125Z" fill="#F9F9F9"/>
<path d="M25.4359 7.38687C25.4359 7.73051 25.1573 8.00909 24.8136 8.00909C24.47 8.00909 24.1914 7.73051 24.1914 7.38687C24.1914 7.04323 24.47 6.76465 24.8136 6.76465C25.1573 6.76465 25.4359 7.04323 25.4359 7.38687Z" fill="#F9F9F9"/>
</svg>
